<?xml version="1.0" standalone="no"?>
<!DOCTYPE svg PUBLIC "-//W3C//DTD SVG 20010904//EN"
 "http://www.w3.org/TR/2001/REC-SVG-20010904/DTD/svg10.dtd">
<svg version="1.0" xmlns="http://www.w3.org/2000/svg"
 width="466.000000pt" height="466.000000pt" viewBox="0 0 466.000000 466.000000"
 preserveAspectRatio="xMidYMid meet">
<metadata>
Created by potrace 1.11, written by Peter Selinger 2001-2013
</metadata>
<g transform="translate(0.000000,466.000000) scale(0.100000,-0.100000)"
fill="#000000" stroke="none">
<path d="M1286 4051 c-2 -3 -3 -159 -2 -346 l1 -340 345 0 345 0 2 330 c1 182
-1 337 -3 346 -4 14 -42 16 -344 16 -187 0 -342 -2 -344 -6z"/>
<path d="M2686 4041 c-2 -9 -3 -164 -3 -346 l2 -330 347 -1 346 -2 -1 347 -2
346 -342 1 c-306 1 -343 -1 -347 -15z"/>
<path d="M586 3342 c-2 -9 -4 -323 -3 -697 l2 -680 344 -1 c307 -1 345 -3 350
-17 8 -23 6 -676 -2 -684 -4 -3 -160 -6 -346 -6 -236 0 -341 -4 -344 -11 -2
-6 -4 -162 -3 -346 l1 -335 1735 -1 c954 -1 1740 1 1746 3 8 3 11 107 10 346
l-1 342 -343 1 c-188 1 -345 4 -349 8 -8 8 -8 685 0 693 4 3 160 6 349 7 l343
1 0 695 0 695 -345 0 -345 0 -1 -344 c-1 -307 -3 -345 -17 -350 -9 -3 -157 -5
-329 -4 -172 1 -322 0 -334 -2 l-21 -5 0 -690 c0 -380 -3 -693 -7 -697 -8 -8
-684 -8 -693 0 -3 4 -6 318 -7 699 l-1 693 -343 1 c-188 0 -345 4 -349 7 -3 4
-7 161 -7 349 l-1 343 -342 2 c-312 1 -343 0 -347 -15z"/>
</g>
</svg>
