<svg width="100%" height="100%" viewBox="0 0 200 200" version="1.1" xmlns="http://www.w3.org/2000/svg" xmlns:xlink="http://www.w3.org/1999/xlink" xml:space="preserve" xmlns:serif="http://www.serif.com/" style="fill-rule:evenodd;clip-rule:evenodd;stroke-linejoin:round;stroke-miterlimit:1.41421;"><path d="M0,120l0,-80l40,0l0,40l40,0l0,80l40,0l0,-80l40,0l0,-40l40,0l0,80l-40,0l0,40l40,0l0,40l-200,0l0,-40l40,0l0,-40l-40,0Zm40,-120l40,0l0,40l-40,0l0,-40Zm80,0l40,0l0,40l-40,0l0,-40Z" style="fill:#333;"/></svg>