<?xml version="1.0" encoding="UTF-8" standalone="no"?>
<!DOCTYPE svg PUBLIC "-//W3C//DTD SVG 1.1//EN" "http://www.w3.org/Graphics/SVG/1.1/DTD/svg11.dtd">
<svg width="100%" height="100%" viewBox="0 0 300 300" version="1.1" xmlns="http://www.w3.org/2000/svg" xmlns:xlink="http://www.w3.org/1999/xlink" xml:space="preserve" xmlns:serif="http://www.serif.com/" style="fill-rule:evenodd;clip-rule:evenodd;stroke-linejoin:round;stroke-miterlimit:2;">
    <g transform="matrix(0.48,0,0,0.48,4,28)">
        <path d="M0,120L0,40L40,40L40,80L80,80L80,160L120,160L120,80L160,80L160,40L200,40L200,120L160,120L160,160L200,160L200,200L0,200L0,160L40,160L40,120L0,120ZM40,0L80,0L80,40L40,40L40,0ZM120,0L160,0L160,40L120,40L120,0Z"/>
    </g>
    <path d="M191.599,224.51L181.061,224.51L181.061,255.085L191.599,255.085L191.599,265.186L181.028,265.186L168.939,265.186L158.401,265.186L158.401,255.085L168.939,255.085L168.939,224.51L158.401,224.51L158.401,214.409L191.599,214.409L191.599,224.51ZM91.265,214.409L91.265,224.51L70.791,224.51L70.791,233.928L87.561,233.928L87.561,244.166L70.791,244.166L70.791,254.949L91.265,254.949L91.265,265.186L58.735,265.186L58.735,214.409L91.265,214.409ZM124.798,265.186C136.921,265.186 143.925,257.747 143.925,249.284C143.925,242.118 140.221,237.887 134.025,235.362L127.761,232.836C123.316,231.062 120.151,229.97 120.151,227.172C120.151,224.442 122.441,222.94 126.145,222.94C130.051,222.94 133.149,224.305 136.449,226.831L142.443,219.187C138.066,214.751 131.937,212.498 126.145,212.498C115.504,212.498 107.961,219.323 107.961,227.854C107.961,235.225 112.877,239.661 118.13,241.777L124.529,244.507C128.839,246.35 131.6,247.305 131.6,250.24C131.6,252.97 129.512,254.676 125.067,254.676C121.094,254.676 116.447,252.56 112.877,249.489L106.075,257.884C111.261,262.729 118.265,265.186 124.798,265.186ZM267.154,265.186L255.098,265.186L255.098,214.409L267.154,214.409L282.846,243.125L282.846,214.409L294.902,214.409L294.902,265.186L282.846,265.186L267.154,236.47L267.154,265.186ZM19.511,214.409C34.799,214.409 44.902,221.848 44.902,239.525C44.902,257.201 34.799,265.186 20.185,265.186L5.098,265.186L5.098,214.409L19.511,214.409ZM245.777,235.225L245.777,258.976C242.275,262.388 236.079,265.186 229.075,265.186C215.133,265.186 204.223,256.314 204.223,239.115C204.223,222.19 215.47,212.498 228.873,212.498C236.214,212.498 241.467,215.638 244.902,219.118L238.504,226.899C236.079,224.647 233.452,222.94 229.277,222.94C221.868,222.94 216.548,228.81 216.548,238.706C216.548,248.807 220.993,254.676 230.287,254.676C232.105,254.676 233.991,254.198 235.069,253.379L235.069,245.189L227.122,245.189L227.122,235.225L245.777,235.225ZM18.77,255.358C26.852,255.358 32.577,251.605 32.577,239.525C32.577,227.445 26.852,224.101 18.77,224.101L17.154,224.101L17.154,255.358L18.77,255.358ZM241.599,156.324L231.061,156.324L231.061,186.899L241.599,186.899L241.599,197L231.028,197L218.939,197L208.401,197L208.401,186.899L218.939,186.899L218.939,156.324L208.401,156.324L208.401,146.223L241.599,146.223L241.599,156.324ZM194.599,146.223L194.599,156.324L180.994,156.324L180.994,197L168.939,197L168.939,156.324L155.401,156.324L155.401,146.223L194.599,146.223ZM274.798,197C286.921,197 293.925,189.561 293.925,181.098C293.925,173.932 290.221,169.701 284.025,167.175L277.761,164.65C273.316,162.876 270.151,161.784 270.151,158.985C270.151,156.256 272.441,154.754 276.145,154.754C280.051,154.754 283.149,156.119 286.449,158.644L292.443,151C288.066,146.564 281.937,144.312 276.145,144.312C265.504,144.312 257.961,151.137 257.961,159.668C257.961,167.039 262.877,171.475 268.13,173.591L274.529,176.321C278.839,178.163 281.6,179.119 281.6,182.054C281.6,184.783 279.512,186.49 275.067,186.49C271.094,186.49 266.447,184.374 262.877,181.303L256.075,189.697C261.261,194.543 268.265,197 274.798,197ZM45.777,167.039L45.777,190.789C42.275,194.202 36.079,197 29.075,197C15.133,197 4.223,188.128 4.223,170.929C4.223,154.003 15.47,144.312 28.873,144.312C36.214,144.312 41.467,147.451 44.902,150.932L38.504,158.712C36.079,156.46 33.452,154.754 29.277,154.754C21.868,154.754 16.548,160.623 16.548,170.52C16.548,180.62 20.993,186.49 30.287,186.49C32.105,186.49 33.991,186.012 35.069,185.193L35.069,177.003L27.122,177.003L27.122,167.039L45.777,167.039ZM132.206,146.223L147.764,197L135.102,197L132.206,185.329L117.39,185.329L114.494,197L102.236,197L117.794,146.223L132.206,146.223ZM73.114,146.161C83.823,146.161 92.713,149.846 92.713,162.131C92.713,169.57 89.278,174.347 84.092,176.804L95.272,196.938L81.802,196.938L72.575,179.056L66.783,179.056L66.783,196.938L54.728,196.938L54.728,146.161L73.114,146.161ZM129.916,175.911L128.839,171.611C127.492,166.561 126.212,160.487 124.865,155.3L124.596,155.3C123.384,160.623 122.037,166.561 120.757,171.611L119.679,175.911L129.916,175.911ZM72.171,169.433C77.896,169.433 80.927,166.908 80.927,162.131C80.927,157.353 77.896,155.784 72.171,155.784L66.783,155.784L66.783,169.433L72.171,169.433Z" style="fill-rule:nonzero;"/>
</svg>
